<svg xmlns="http://www.w3.org/2000/svg" viewBox="0 0 225.25 189.58"><defs><style>.cls-1{fill:#fff;}</style></defs><title>fvv</title><g id="Camada_2" data-name="Camada 2"><g id="Camada_1-2" data-name="Camada 1"><path class="cls-1" d="M102.47,25.2h0a3,3,0,0,0-2.81,0L47.28,53l6.39,3.41,48.8-25.92A3,3,0,0,0,102.47,25.2Z"/><path class="cls-1" d="M93.15,20.22h0a3,3,0,0,0-2.82,0L38,48l6.38,3.4,48.8-25.92A3,3,0,0,0,93.15,20.22Z"/><path class="cls-1" d="M83.82,15.25h0a3,3,0,0,0-2.82,0L28.63,43.06,35,46.47l48.8-25.93A3,3,0,0,0,83.82,15.25Z"/><path class="cls-1" d="M19.7,140.72h0a3,3,0,0,0,4.41-2.65v-94l-6-3.2v97.22A3,3,0,0,0,19.7,140.72Z"/><path class="cls-1" d="M74.49,10.27h0a3,3,0,0,0-2.82,0L19.3,38.09l6.38,3.4,48.8-25.92A3,3,0,0,0,74.49,10.27Z"/><path class="cls-1" d="M65.16,5.3h0a3,3,0,0,0-2.82,0L10,33.11l6.38,3.4,48.8-25.92A3,3,0,0,0,65.16,5.3Z"/><path class="cls-1" d="M55.89.35h0a3,3,0,0,0-2.82,0L.7,28.17l6.38,3.4L55.89,5.65A3,3,0,0,0,55.89.35Z"/><path class="cls-1" d="M10.55,164.83h0A3,3,0,0,0,15,162.18V142.65A3,3,0,0,0,13.38,140h0A3,3,0,0,0,9,142.65v19.53A3,3,0,0,0,10.55,164.83Z"/><path class="cls-1" d="M15,39.18,9,36v94.22a3,3,0,0,0,1.59,2.64h0A3,3,0,0,0,15,130.19Z"/><path class="cls-1" d="M47.14,168.66h0A3,3,0,0,0,51.55,166V148.94A3,3,0,0,0,50,146.29h0a3,3,0,0,0-4.41,2.65V166A3,3,0,0,0,47.14,168.66Z"/><path class="cls-1" d="M51.55,58.69l-6-3.2v81a3,3,0,0,0,1.59,2.65h0a3,3,0,0,0,4.41-2.65Z"/><path class="cls-1" d="M33.26,48.93l-6-3.2V84.54a3,3,0,0,0,1.59,2.64h0a3,3,0,0,0,4.41-2.64Z"/><path class="cls-1" d="M31.67,94.36h0A3,3,0,0,0,27.26,97v25.57a3,3,0,0,0,1.59,2.65h0a3,3,0,0,0,4.41-2.65V97A3,3,0,0,0,31.67,94.36Z"/><path class="cls-1" d="M1.59,156.54h0A3,3,0,0,0,6,153.9V124.64A3,3,0,0,0,4.41,122h0A3,3,0,0,0,0,124.64V153.9A3,3,0,0,0,1.59,156.54Z"/><path class="cls-1" d="M4.41,79.82h0A3,3,0,0,0,0,82.46v29.72a3,3,0,0,0,1.59,2.64h0A3,3,0,0,0,6,112.18V82.46A3,3,0,0,0,4.41,79.82Z"/><path class="cls-1" d="M6,34.39l-6-3.2V70a3,3,0,0,0,1.59,2.64h0A3,3,0,0,0,6,70Z"/><path class="cls-1" d="M38,189.22h0a3,3,0,0,0,4.41-2.64V81.92a3,3,0,0,0-1.58-2.65h0a3,3,0,0,0-4.42,2.65V186.58A3,3,0,0,0,38,189.22Z"/><path class="cls-1" d="M42.4,53.81l-6-3.2V69.45A3,3,0,0,0,38,72.1h0a3,3,0,0,0,4.41-2.65Z"/><path class="cls-1" d="M111.41,75h-17c-4.83,0-6.57,1.66-6.57,7.15v9h22.55a1.67,1.67,0,0,1,1.66,1.67v6a1.67,1.67,0,0,1-1.66,1.66H87.86v25.47a1.67,1.67,0,0,1-1.67,1.66H78a1.67,1.67,0,0,1-1.67-1.66V82.13c0-14.14,8.41-17.06,19.23-17.06,9.9,0,13.14.75,15.81,1.17,1.25.16,1.66.58,1.66,1.75v5.32A1.67,1.67,0,0,1,111.41,75Z"/><path class="cls-1" d="M170.58,67.57l-13.65,52.18c-2,7.74-8,8.49-11.57,8.49s-9.57-.75-11.57-8.49L120.14,67.57c0-.17-.08-.25-.08-.42a1.42,1.42,0,0,1,1.5-1.41h8.82A1.76,1.76,0,0,1,132,67.15l12.07,50c.25,1,.5,1.33,1.33,1.33s1.08-.33,1.33-1.33l12.07-50a1.75,1.75,0,0,1,1.58-1.41h8.82a1.42,1.42,0,0,1,1.5,1.41C170.66,67.32,170.58,67.4,170.58,67.57Z"/><path class="cls-1" d="M225.16,67.57l-13.64,52.18c-2,7.74-8,8.49-11.57,8.49s-9.57-.75-11.57-8.49L174.73,67.57c0-.17-.08-.25-.08-.42a1.42,1.42,0,0,1,1.5-1.41H185a1.76,1.76,0,0,1,1.58,1.41l12.07,50c.25,1,.5,1.33,1.33,1.33s1.08-.33,1.33-1.33l12.07-50a1.75,1.75,0,0,1,1.58-1.41h8.82a1.42,1.42,0,0,1,1.5,1.41C225.25,67.32,225.16,67.4,225.16,67.57Z"/><path class="cls-1" d="M81.18,149.18h-2.7c-.8,0-1.27-.3-1.27-1.18v-5.43c0-.88.47-1.17,1.27-1.17h2.7a.18.18,0,0,1,.2.18v.08a.18.18,0,0,1-.2.17h-2.7c-.51,0-.81.09-.81.74v2.3h3.51a.18.18,0,0,1,.2.17v.11a.18.18,0,0,1-.2.17H77.67V148c0,.65.3.75.81.75h2.7c.11,0,.2.06.2.16V149A.19.19,0,0,1,81.18,149.18Z"/><path class="cls-1" d="M92.76,149.18h-.1a.19.19,0,0,1-.18-.2v-7.12a.06.06,0,0,0-.07-.07c-.06,0-.07,0-.11.09l-1.81,3.82c-.15.3-.3.38-.53.38a.55.55,0,0,1-.54-.38l-1.81-3.82c0-.07,0-.09-.1-.09a.07.07,0,0,0-.08.07V149a.19.19,0,0,1-.17.2h-.11A.2.2,0,0,1,87,149v-7.12a.47.47,0,0,1,.54-.51.5.5,0,0,1,.48.32l1.83,3.84c0,.1.07.14.14.14s.09,0,.13-.14l1.84-3.84a.5.5,0,0,1,.48-.32.47.47,0,0,1,.53.51V149A.19.19,0,0,1,92.76,149.18Z"/><path class="cls-1" d="M100.4,145.89c-.41,0-.85,0-1.14,0V149a.19.19,0,0,1-.18.2H99a.19.19,0,0,1-.18-.2V141.6a.2.2,0,0,1,.18-.2c.36,0,1-.05,1.42-.05,1.78,0,2.85.61,2.85,2.12v.18C103.25,145.29,102.18,145.89,100.4,145.89Zm2.39-2.42c0-1.3-.83-1.72-2.39-1.72-.44,0-.84,0-1.14,0v3.65c.33,0,.79,0,1.14,0,1.62,0,2.39-.5,2.39-1.83Z"/><path class="cls-1" d="M113.42,149.18h-.13a.25.25,0,0,1-.16-.1l-2.23-3.41c-.2,0-.27,0-.45,0H109.1V149a.2.2,0,0,1-.18.2h-.1a.19.19,0,0,1-.18-.2v-7.39a.2.2,0,0,1,.18-.2c.36,0,1.18,0,1.63,0,1.88,0,2.85.53,2.85,2.13v.05a1.92,1.92,0,0,1-1.88,2.09l2.12,3.25C113.62,149,113.6,149.18,113.42,149.18Zm-.58-5.7c0-1.31-.83-1.69-2.39-1.69-.44,0-1,0-1.35,0v3.39h1.35c1.62,0,2.39-.36,2.39-1.7Z"/><path class="cls-1" d="M123.05,149.18h-2.7c-.8,0-1.27-.3-1.27-1.18v-5.43c0-.88.47-1.17,1.27-1.17h2.7a.18.18,0,0,1,.2.18v.08a.18.18,0,0,1-.2.17h-2.7c-.5,0-.81.09-.81.74v2.3h3.51a.18.18,0,0,1,.2.17v.11a.18.18,0,0,1-.2.17h-3.51V148c0,.65.31.75.81.75h2.7c.12,0,.2.06.2.16V149A.18.18,0,0,1,123.05,149.18Z"/><path class="cls-1" d="M132.81,149.18h-2.7c-.79,0-1.26-.3-1.26-1.18v-5.43c0-.88.47-1.17,1.26-1.17h2.7a.18.18,0,0,1,.2.18v.08a.18.18,0,0,1-.2.17h-2.7c-.5,0-.8.09-.8.74v2.3h3.5a.18.18,0,0,1,.2.17v.11a.18.18,0,0,1-.2.17h-3.5V148c0,.65.3.75.8.75h2.7c.12,0,.2.06.2.16V149A.18.18,0,0,1,132.81,149.18Z"/><path class="cls-1" d="M143.28,149.24a.51.51,0,0,1-.36-.08.68.68,0,0,1-.18-.24l-3.53-7.06s0-.07-.09-.07-.05,0-.05.07V149a.19.19,0,0,1-.18.2h-.1a.19.19,0,0,1-.18-.2v-7.12a.48.48,0,0,1,.51-.51.49.49,0,0,1,.51.32l3.51,7.06a.11.11,0,0,0,.09.07s.05-.05.05-.1v-7.1a.18.18,0,0,1,.17-.2h.12a.18.18,0,0,1,.18.2v7.1A.48.48,0,0,1,143.28,149.24Z"/><path class="cls-1" d="M151.51,149.24a10.63,10.63,0,0,1-1.72-.09.21.21,0,0,1-.18-.19v-7.33a.21.21,0,0,1,.18-.2,12.47,12.47,0,0,1,1.72-.08c1.77,0,3.05.84,3.05,3.29v1.3C154.56,148.35,153.28,149.24,151.51,149.24Zm2.59-4.6c0-2.23-1.13-2.89-2.59-2.89-.61,0-1,0-1.44.07v7c.46,0,.83,0,1.44,0,1.46,0,2.59-.68,2.59-2.89Z"/><path class="cls-1" d="M160.6,149.18h-.1a.19.19,0,0,1-.18-.2V141.6a.18.18,0,0,1,.18-.2h.1a.19.19,0,0,1,.18.2V149A.2.2,0,0,1,160.6,149.18Z"/><path class="cls-1" d="M172.53,149.18h-.1a.19.19,0,0,1-.18-.2v-7.12a.06.06,0,0,0-.07-.07c-.06,0-.07,0-.11.09l-1.81,3.82c-.15.3-.3.38-.53.38a.55.55,0,0,1-.54-.38l-1.81-3.82c0-.07,0-.09-.1-.09s-.08,0-.08.07V149a.19.19,0,0,1-.17.2h-.11a.2.2,0,0,1-.18-.2v-7.12a.47.47,0,0,1,.54-.51.51.51,0,0,1,.48.32l1.83,3.84c0,.1.07.14.14.14s.09,0,.13-.14l1.83-3.84a.51.51,0,0,1,.49-.32.47.47,0,0,1,.53.51V149A.19.19,0,0,1,172.53,149.18Z"/><path class="cls-1" d="M182.54,149.18h-2.7c-.8,0-1.27-.3-1.27-1.18v-5.43c0-.88.47-1.17,1.27-1.17h2.7a.18.18,0,0,1,.2.18v.08a.18.18,0,0,1-.2.17h-2.7c-.51,0-.81.09-.81.74v2.3h3.51a.18.18,0,0,1,.2.17v.11a.18.18,0,0,1-.2.17H179V148c0,.65.3.75.81.75h2.7c.11,0,.2.06.2.16V149A.19.19,0,0,1,182.54,149.18Z"/><path class="cls-1" d="M193,149.24a.47.47,0,0,1-.35-.08.6.6,0,0,1-.19-.24l-3.53-7.06s0-.07-.08-.07a.07.07,0,0,0-.06.07V149a.19.19,0,0,1-.17.2h-.11a.2.2,0,0,1-.18-.2v-7.12a.48.48,0,0,1,.52-.51.48.48,0,0,1,.5.32l3.52,7.06s0,.07.08.07.05-.05.05-.1v-7.1a.18.18,0,0,1,.17-.2h.13a.18.18,0,0,1,.17.2v7.1A.48.48,0,0,1,193,149.24Z"/><path class="cls-1" d="M203.54,141.83H201.3V149a.19.19,0,0,1-.18.2H201a.19.19,0,0,1-.18-.2v-7.15h-2.25c-.12,0-.2-.05-.2-.16v-.09a.18.18,0,0,1,.2-.18h4.95a.18.18,0,0,1,.2.18v.09C203.74,141.78,203.66,141.83,203.54,141.83Z"/><path class="cls-1" d="M211,149.24c-1.56,0-2.68-1-2.68-3.3v-1.3c0-2.33,1.12-3.29,2.68-3.29s2.68,1,2.68,3.29v1.3C213.65,148.28,212.53,149.24,211,149.24Zm2.22-4.6c0-2.13-.95-2.85-2.22-2.85s-2.22.72-2.22,2.85v1.3c0,2.14.95,2.86,2.22,2.86s2.22-.72,2.22-2.86Z"/><path class="cls-1" d="M221,149.24a8.9,8.9,0,0,1-1.53-.11c-.19,0-.28-.07-.28-.22v0c0-.17.12-.19.24-.18a12.1,12.1,0,0,0,1.57.11c1.58,0,1.94-.7,1.94-1.56s-.45-1.05-1.61-1.77l-.66-.41c-1-.58-1.64-1.08-1.64-2.09,0-1.29,1.22-1.62,2.45-1.62a14.41,14.41,0,0,1,1.45.09c.21,0,.29.07.29.21v0c0,.16-.12.19-.33.17s-1-.08-1.42-.08c-1.38,0-2,.4-2,1.18s.48,1.12,1.41,1.68l.67.41c1.24.75,1.85,1.22,1.85,2.18S223,149.24,221,149.24Z"/></g></g></svg>