<svg xmlns="http://www.w3.org/2000/svg" viewBox="0 0 209.8 97.01"><defs><style>.cls-1{fill:#fff;fill-rule:evenodd;}</style></defs><title>quebreabanca</title><g id="Camada_2" data-name="Camada 2"><g id="Camada_1-2" data-name="Camada 1"><path class="cls-1" d="M86.2,36.08h-27a25.17,25.17,0,0,0,1.14-7.48c0-.17,0-.33,0-.5A17,17,0,1,0,43.39,45h1.82L41.8,52h-31a4.47,4.47,0,0,0,0,8.94h27a25.06,25.06,0,0,0-1.15,7.48c0,.17,0,.34,0,.51A17,17,0,1,0,53.62,52H51.8l3.37-7h31a4.47,4.47,0,0,0,0-8.94Zm34.56,35.78v-.09a.16.16,0,0,0,0-.09l-4.91-17.31a2.68,2.68,0,0,0-.68-1.24,2.38,2.38,0,0,0-1-.6,3.14,3.14,0,0,0-1-.15,3.27,3.27,0,0,0-1,.16,2.55,2.55,0,0,0-1,.61,2.91,2.91,0,0,0-.68,1.25l-4.91,17.28a.29.29,0,0,0,0,.09.34.34,0,0,0,0,.09.46.46,0,0,0,.13.31.49.49,0,0,0,.33.12h1.56a.49.49,0,0,0,.3-.12.57.57,0,0,0,.18-.28l1.7-6.1h6.87l1.73,6.1a.61.61,0,0,0,.16.28.41.41,0,0,0,.29.12h1.57a.49.49,0,0,0,.33-.12.41.41,0,0,0,.12-.31Zm-4.7-8.17h-5.87L112.61,55a.83.83,0,0,1,.18-.35.5.5,0,0,1,.35-.12.44.44,0,0,1,.32.12.83.83,0,0,1,.18.35l2.42,8.74Zm27.05,3.17v-.45a5,5,0,0,0-.35-1.88,4.22,4.22,0,0,0-2.59-2.41,4.71,4.71,0,0,0,1.54-.95,4.06,4.06,0,0,0,1-1.42,4.82,4.82,0,0,0,.34-1.81v-.42a5,5,0,0,0-.41-2.08A3.87,3.87,0,0,0,141.49,54a5.6,5.6,0,0,0-1.7-.94,10.38,10.38,0,0,0-2.13-.51,18.92,18.92,0,0,0-2.43-.14c-.58,0-1.13,0-1.67,0l-1.45.08-1.1.1a1,1,0,0,0-.64.28,1,1,0,0,0-.21.7V71.25a.94.94,0,0,0,.21.71,1.07,1.07,0,0,0,.66.28c.34.05.73.09,1.19.13l1.46.08q.81,0,1.68,0a17,17,0,0,0,2.4-.16,9.82,9.82,0,0,0,2.12-.54,5.46,5.46,0,0,0,1.7-1,4.46,4.46,0,0,0,1.13-1.61,6.05,6.05,0,0,0,.4-2.29Zm-2.52-8.92a3.43,3.43,0,0,1-.18,1.2,2.47,2.47,0,0,1-.62,1,3,3,0,0,1-1.19.69,6.12,6.12,0,0,1-1.91.26H132.6V54.5l1.25,0q.69,0,1.38,0a16.28,16.28,0,0,1,2.2.13,5.69,5.69,0,0,1,1.7.46,2.49,2.49,0,0,1,1.08.94,3,3,0,0,1,.38,1.57v.42Zm.11,8.92a3.8,3.8,0,0,1-.37,1.76,2.7,2.7,0,0,1-1.07,1.1,5.11,5.11,0,0,1-1.68.56,13.52,13.52,0,0,1-2.22.15c-.46,0-.93,0-1.4,0l-1.36-.07V63.05h4.09a6,6,0,0,1,1.95.28,3.06,3.06,0,0,1,1.23.75,2.73,2.73,0,0,1,.64,1.07,4,4,0,0,1,.19,1.26v.45Zm19.78,5a.34.34,0,0,0,0-.09.29.29,0,0,0,0-.09l-4.91-17.31a2.87,2.87,0,0,0-.68-1.24,2.45,2.45,0,0,0-1-.6,3.17,3.17,0,0,0-1-.15,3.23,3.23,0,0,0-1.05.16,2.48,2.48,0,0,0-1,.61,2.72,2.72,0,0,0-.68,1.25l-4.91,17.28a.16.16,0,0,0,0,.09v.09a.39.39,0,0,0,.13.31.48.48,0,0,0,.32.12h1.57a.49.49,0,0,0,.3-.12.57.57,0,0,0,.18-.28l1.7-6.1h6.87l1.73,6.1a.59.59,0,0,0,.15.28.45.45,0,0,0,.3.12H160a.5.5,0,0,0,.34-.12.41.41,0,0,0,.12-.31Zm-4.7-8.17h-5.87L152.33,55a.83.83,0,0,1,.18-.35.5.5,0,0,1,.35-.12.44.44,0,0,1,.32.12.83.83,0,0,1,.18.35l2.42,8.74Zm21.45,7.83V53.07a.57.57,0,0,0-.13-.36.5.5,0,0,0-.35-.15h-1.41a.51.51,0,0,0-.33.15.48.48,0,0,0-.14.36V68.6a.11.11,0,0,1,0,.05s0,0,0,0l-.05-.08-8.15-15.51a1.3,1.3,0,0,0-.22-.31.61.61,0,0,0-.31-.17,2.61,2.61,0,0,0-.56,0h-1.46a.82.82,0,0,0-.55.22.7.7,0,0,0-.22.53V72a.26.26,0,0,0,.14.26.81.81,0,0,0,.33.06h1.39a.52.52,0,0,0,.47-.5V56.28s0-.05,0-.06a0,0,0,0,1,0,0s0,0,.08.08L174,71.86a.69.69,0,0,0,.32.31,1.07,1.07,0,0,0,.53.12h1.65a.79.79,0,0,0,.77-.77Zm15.61.08V70.51a.47.47,0,0,0-.1-.32.45.45,0,0,0-.33-.1h-.1l-.88.06-1.1.07c-.4,0-.81,0-1.21.06l-1.19,0a4.91,4.91,0,0,1-1.82-.32,3.69,3.69,0,0,1-1.47-1,5,5,0,0,1-1-1.87,9.9,9.9,0,0,1-.35-2.82V60.58a10,10,0,0,1,.35-2.84,4.93,4.93,0,0,1,1-1.87,3.77,3.77,0,0,1,1.47-1,4.9,4.9,0,0,1,1.82-.3c.39,0,.79,0,1.21,0l1.23.06,1.13.08.89.07h.08a.31.31,0,0,0,.25-.08.31.31,0,0,0,.07-.21V53.15a.28.28,0,0,0-.13-.25.56.56,0,0,0-.3-.1l-1.3-.19-1.52-.17c-.53,0-1.08-.06-1.64-.06a7.87,7.87,0,0,0-2,.23,6.15,6.15,0,0,0-1.9.78,5.76,5.76,0,0,0-1.6,1.49,7.22,7.22,0,0,0-1.11,2.35,12.6,12.6,0,0,0-.42,3.35v3.69a12.39,12.39,0,0,0,.42,3.33,7.07,7.07,0,0,0,1.11,2.34,5.66,5.66,0,0,0,1.6,1.5,6.2,6.2,0,0,0,1.9.8,8.38,8.38,0,0,0,2,.24c.56,0,1,0,1.48,0s.82,0,1.15-.07.65-.06.94-.11l.84-.14a.75.75,0,0,0,.37-.17.47.47,0,0,0,.16-.36Zm17,.26v-.09a.29.29,0,0,0,0-.09l-4.91-17.31a2.87,2.87,0,0,0-.68-1.24,2.41,2.41,0,0,0-1-.6,3.1,3.1,0,0,0-1-.15,3.17,3.17,0,0,0-1,.16,2.59,2.59,0,0,0-1,.61,2.8,2.8,0,0,0-.67,1.25l-4.92,17.28a.29.29,0,0,0,0,.09v.09a.39.39,0,0,0,.13.31.48.48,0,0,0,.32.12h1.57a.52.52,0,0,0,.3-.12.62.62,0,0,0,.17-.28l1.7-6.1h6.88l1.72,6.1a.61.61,0,0,0,.16.28.45.45,0,0,0,.3.12h1.56a.5.5,0,0,0,.34-.12.45.45,0,0,0,.11-.31Zm-4.7-8.17h-5.86L201.65,55a.74.74,0,0,1,.19-.35.47.47,0,0,1,.34-.12.46.46,0,0,1,.33.12.83.83,0,0,1,.18.35l2.41,8.74Zm-82.85-27.6V33.35a13,13,0,0,0-.42-3.38,7.81,7.81,0,0,0-1.17-2.48,6.62,6.62,0,0,0-1.77-1.66,7.74,7.74,0,0,0-2.23-.93,11.66,11.66,0,0,0-5.08,0,7.74,7.74,0,0,0-2.23.93,6.51,6.51,0,0,0-1.78,1.66A7.81,7.81,0,0,0,106.4,30a12.56,12.56,0,0,0-.43,3.38v2.74a12.64,12.64,0,0,0,.43,3.39A7.6,7.6,0,0,0,107.57,42a6.37,6.37,0,0,0,1.79,1.65,7.5,7.5,0,0,0,2.24.92v.53A6,6,0,0,0,112,47.3a3.6,3.6,0,0,0,1,1.42,3.85,3.85,0,0,0,1.43.75,6.69,6.69,0,0,0,1.69.21,14,14,0,0,0,1.76-.11,12.26,12.26,0,0,0,1.53-.29,1.1,1.1,0,0,0,.47-.25.49.49,0,0,0,.17-.36V46a.38.38,0,0,0-.19-.31,1,1,0,0,0-.48-.11h-2.2a.55.55,0,0,1-.37-.09.57.57,0,0,1-.11-.42v-.5a7.49,7.49,0,0,0,2.23-.94,6.44,6.44,0,0,0,1.76-1.66,7.92,7.92,0,0,0,1.17-2.48,12.9,12.9,0,0,0,.42-3.36Zm-5.45,0a7.74,7.74,0,0,1-.28,2.31,2.35,2.35,0,0,1-.88,1.29,3.09,3.09,0,0,1-3,0,2.38,2.38,0,0,1-.9-1.29,7.7,7.7,0,0,1-.29-2.31V33.35A7.7,7.7,0,0,1,111.7,31a2.4,2.4,0,0,1,.9-1.3,3.09,3.09,0,0,1,3,0,2.38,2.38,0,0,1,.88,1.3,7.74,7.74,0,0,1,.28,2.31v2.74Zm24.43,1V25.39a.54.54,0,0,0-.17-.38.56.56,0,0,0-.39-.15h-4.3A.54.54,0,0,0,136,25a.56.56,0,0,0-.15.38v11.7a5.36,5.36,0,0,1-.27,1.9,1.79,1.79,0,0,1-.86,1,3.37,3.37,0,0,1-1.53.29,3.28,3.28,0,0,1-1.51-.29,1.74,1.74,0,0,1-.85-1,5.16,5.16,0,0,1-.26-1.9V25.39a.57.57,0,0,0-.16-.38.5.5,0,0,0-.38-.15h-4.3a.58.58,0,0,0-.39.15.53.53,0,0,0-.16.38v11.7a11,11,0,0,0,.43,3.27,6,6,0,0,0,1.19,2.23A5.42,5.42,0,0,0,128.56,44a8,8,0,0,0,2.19.68,15.7,15.7,0,0,0,4.87,0,8,8,0,0,0,2.2-.68,5.56,5.56,0,0,0,1.78-1.36,6,6,0,0,0,1.19-2.23,11,11,0,0,0,.44-3.27ZM157,44V40.73a.5.5,0,0,0-.15-.37.53.53,0,0,0-.38-.16h-5.36a2.22,2.22,0,0,1-.76-.11.75.75,0,0,1-.39-.41,2,2,0,0,1-.12-.81v-2.2h6.53a.51.51,0,0,0,.37-.16.55.55,0,0,0,.16-.37V33a.57.57,0,0,0-.16-.38.55.55,0,0,0-.37-.16h-6.53V30.54a2,2,0,0,1,.12-.81.75.75,0,0,1,.39-.41,1.82,1.82,0,0,1,.76-.11h5.36a.57.57,0,0,0,.38-.16.5.5,0,0,0,.15-.37V25.44a.49.49,0,0,0-.13-.37.7.7,0,0,0-.4-.16c-.5-.07-1.17-.14-2-.21s-1.92-.11-3.21-.11a14.86,14.86,0,0,0-2,.13,7.33,7.33,0,0,0-1.84.49,4.37,4.37,0,0,0-1.53,1,4.49,4.49,0,0,0-1,1.72,7.78,7.78,0,0,0-.38,2.59v8.33a7.84,7.84,0,0,0,.38,2.6,4.56,4.56,0,0,0,1,1.72,4.66,4.66,0,0,0,1.53,1,7.33,7.33,0,0,0,1.84.49,16.69,16.69,0,0,0,2,.12c1.29,0,2.35,0,3.21-.11s1.52-.14,2-.21a.71.71,0,0,0,.4-.17A.45.45,0,0,0,157,44Zm18.56-5.28v-.35a4.46,4.46,0,0,0-.29-1.6,4.67,4.67,0,0,0-.77-1.32,4.35,4.35,0,0,0-1.09-.93,3.49,3.49,0,0,0,1.06-.9,4.29,4.29,0,0,0,.72-1.29,5.08,5.08,0,0,0,.27-1.58v-.45a5.88,5.88,0,0,0-.61-2.77,4.44,4.44,0,0,0-1.75-1.74,8.21,8.21,0,0,0-2.72-.91,21.34,21.34,0,0,0-3.55-.26l-1.19,0-1.41.07-1.38.1c-.42,0-.78.08-1.07.13a3,3,0,0,0-1,.28,1.14,1.14,0,0,0-.52.6,3,3,0,0,0-.15,1.11V42.48a3.08,3.08,0,0,0,.15,1.12,1.16,1.16,0,0,0,.53.6,2.9,2.9,0,0,0,1,.3c.32,0,.69.1,1.13.14l1.38.1,1.4.06,1.19,0a19.31,19.31,0,0,0,2.53-.15,11,11,0,0,0,2.35-.53,6.61,6.61,0,0,0,1.95-1.08,4.65,4.65,0,0,0,1.33-1.77,6.31,6.31,0,0,0,.49-2.6Zm-5.31-7.6a1.59,1.59,0,0,1-.19.85,1.4,1.4,0,0,1-.68.6,3.51,3.51,0,0,1-1.36.23h-2.57V29h2.09a5.07,5.07,0,0,1,1.63.21,1.56,1.56,0,0,1,.84.59,1.48,1.48,0,0,1,.24.9v.42Zm.11,7.44a1.93,1.93,0,0,1-.25,1,1.62,1.62,0,0,1-.86.67,4.49,4.49,0,0,1-1.63.24h-2.17V36.38H168a3.19,3.19,0,0,1,1.39.26,1.52,1.52,0,0,1,.73.68,2.07,2.07,0,0,1,.22,1v.24Zm24.21,5.65a.32.32,0,0,0,0-.13.52.52,0,0,0-.06-.16l-3.85-7.22a5.37,5.37,0,0,0,1.21-.72,5.21,5.21,0,0,0,1-1.1,5.57,5.57,0,0,0,.72-1.49,6.36,6.36,0,0,0,.27-1.92V31a7.08,7.08,0,0,0-.6-3.05,4.9,4.9,0,0,0-1.7-2A7.35,7.35,0,0,0,189,24.91a16,16,0,0,0-3.38-.32l-1.52,0-1.59.08c-.52,0-1,.07-1.43.12l-1.06.11a3.16,3.16,0,0,0-.89.26,1,1,0,0,0-.5.52,2.55,2.55,0,0,0-.15,1V44.05a.52.52,0,0,0,.17.38.61.61,0,0,0,.39.15h4.3a.54.54,0,0,0,.37-.15.59.59,0,0,0,.16-.38v-6.5h1.38l.19.11,3.31,6.37a2.87,2.87,0,0,0,.21.36.37.37,0,0,0,.32.17h4.89a.5.5,0,0,0,.33-.11.37.37,0,0,0,.12-.29Zm-6.05-12.71a2.08,2.08,0,0,1-.26,1.06,1.67,1.67,0,0,1-.88.67,4.76,4.76,0,0,1-1.62.23h-1.7l-.24,0V29.18h.73l.56,0,.48,0h.27a3.49,3.49,0,0,1,2,.47,1.63,1.63,0,0,1,.66,1.41v.46ZM209.64,44V40.73a.5.5,0,0,0-.15-.37.53.53,0,0,0-.38-.16h-5.36a2.22,2.22,0,0,1-.76-.11.72.72,0,0,1-.39-.41,2,2,0,0,1-.12-.81v-2.2H209a.51.51,0,0,0,.37-.16.55.55,0,0,0,.16-.37V33a.57.57,0,0,0-.16-.38.55.55,0,0,0-.37-.16h-6.53V30.54a2,2,0,0,1,.12-.81.72.72,0,0,1,.39-.41,1.82,1.82,0,0,1,.76-.11h5.36a.57.57,0,0,0,.38-.16.5.5,0,0,0,.15-.37V25.44a.49.49,0,0,0-.13-.37.7.7,0,0,0-.4-.16c-.5-.07-1.17-.14-2-.21s-1.92-.11-3.21-.11a14.86,14.86,0,0,0-2,.13,7.41,7.41,0,0,0-1.85.49,4.43,4.43,0,0,0-1.52,1,4.37,4.37,0,0,0-1,1.72,7.78,7.78,0,0,0-.38,2.59v8.33a7.84,7.84,0,0,0,.38,2.6,4.44,4.44,0,0,0,1,1.72,4.73,4.73,0,0,0,1.52,1,7.41,7.41,0,0,0,1.85.49,16.69,16.69,0,0,0,2,.12c1.29,0,2.35,0,3.21-.11s1.52-.14,2-.21a.71.71,0,0,0,.4-.17.45.45,0,0,0,.13-.36ZM43.39,36.08h0a8,8,0,1,1,8-8,21.75,21.75,0,0,1-1.74,8H43.39ZM53.62,60.93h0a8,8,0,1,1-8,8,21.87,21.87,0,0,1,1.73-8h6.25ZM97,48.51A48.51,48.51,0,1,0,48.51,97,48.5,48.5,0,0,0,97,48.51Z"/></g></g></svg>